# AST/ASF file generated using VICON BodyLanguage
# -----------------------------------------------
:version 1.10
:name VICON
:units
  mass 1.0
  length 0.45
  angle deg
:documentation
   .ast/.asf automatically generated from VICON data using
   VICON BodyBuilder and BodyLanguage model FoxedUp or BRILLIANT.MOD
:root
   order TX TY TZ RX RY RZ
   axis XYZ
   position 0 0 0  
   orientation 0 0 0 
:bonedata
  begin
     id 1 
     name lhipjoint
     direction 0.611804 -0.747784 0.257906 
     length 2.29243 
     axis 0 0 0  XYZ
  end
  begin
     id 2 
     name lfemur
     direction 0.34202 -0.939693 0  
     length 7.31159  
     axis 0 0 20  XYZ
    dof rx ry rz
    limits (-160.0 20.0)
           (-70.0 70.0)
           (-60.0 70.0)
  end
  begin
     id 3 
     name ltibia
     direction 0.34202 -0.939693 0   
     length 7.33391   
     axis 0 0 20   XYZ
    dof rx
    limits (-10.0 170.0)
  end
  begin
     id 4 
     name lfoot
     direction 0.122263 -0.335914 0.933924   
     length 1.76083   
     axis -90 7.62852e-016 20   XYZ
    dof rx rz
    limits (-45.0 90.0)
           (-70.0 20.0)
  end
  begin
     id 5 
     name ltoes
     direction 1.53533e-011 -4.2177e-011 1   
     length 0.879206   
     axis -90 7.62852e-016 20   XYZ
    dof rx
    limits (-90.0 20.0)
  end
  begin
     id 6 
     name rhipjoint
     direction -0.646469 -0.721248 0.248754   
     length 2.37677  
     axis 0 0 0  XYZ 
  end
  begin
     id 7 
     name rfemur
     direction -0.34202 -0.939693 0   
     length 7.18623   
     axis 0 0 -20   XYZ
    dof rx ry rz
    limits (-160.0 20.0)
           (-70.0 70.0)
           (-70.0 60.0)
  end
  begin
     id 8 
     name rtibia
     direction -0.34202 -0.939693 0   
     length 7.36567   
     axis 0 0 -20   XYZ
    dof rx
    limits (-10.0 170.0)
 end
 begin
     id 9 
     name rfoot
     direction -0.126681 -0.348054 0.928876   
     length 1.71902  
     axis -90 -7.62852e-016 -20   XYZ
    dof rx rz
    limits (-45.0 90.0)
           (-20.0 70.0)
  end
  begin
     id 10 
     name rtoes
     direction -1.53551e-011 -4.21898e-011 1   
     length 0.857792   
     axis -90 -7.62852e-016 -20   XYZ
    dof rx
    limits (-90.0 20.0)
  end
  begin
     id 11 
     name lowerback
     direction 0.0106509 0.999778 0.0181844   
     length 2.07668   
     axis 0 0 0   XYZ
    dof rx ry rz
    limits (-20.0 45.0)
           (-30.0 30.0)
           (-30.0 30.0)
  end
  begin
     id 12 
     name upperback
     direction -0.00456018 0.999989 -0.000590935   
     length 2.08011   
     axis 0 0 0   XYZ
    dof rx ry rz
    limits (-20.0 45.0)
           (-30.0 30.0)
           (-30.0 30.0)
  end
  begin
     id 13 
     name thorax
     direction -0.00910382 0.999916 -0.00923765   
     length 2.07397   
     axis 0 0 0   XYZ
    dof rx ry rz
    limits (-20.0 45.0)
           (-30.0 30.0)
           (-30.0 30.0)
  end
  begin
     id 14 
     name lowerneck
     direction 0.00171967 0.99778 0.0665733   
     length 1.67556   
     axis 0 0 0   XYZ
    dof rx ry rz
    limits (-20.0 45.0)
           (-30.0 30.0)
           (-30.0 30.0)
  end
  begin
     id 15 
     name upperneck
     direction -0.0143166 0.991302 -0.130828   
     length 1.68462   
     axis 0 0 0   XYZ
    dof rx ry rz
    limits (-20.0 45.0)
           (-30.0 30.0)
           (-30.0 30.0)
  end
  begin
     id 16
     name head
     direction -0.00606378 0.998665 -0.0512995  
     length 1.69269  
     axis 0 0 0   XYZ
    dof rx ry rz
    limits (-20.0 45.0)
           (-30.0 30.0)
           (-30.0 30.0)
  end
  begin
     id 17 
     name lclavicle
     direction 0.9638 0.179341 0.197297  
     length 4.12888  
     axis 0 0 0   XYZ
    dof ry rz
    limits (-20.0 10.0)
           (0.0 20.0)
  end
  begin
     id 18 
     name lhumerus
     direction 1 -4.48972e-011 -2.47351e-027   
     length 5.01834   
     axis -180 -30 -90   XYZ
    dof rx ry rz
    limits (-60.0 90.0)
           (-90.0 90.0)
           (-90.0 90.0)
  end
  begin
     id 19
     name lradius
     direction 1 -4.48965e-011 1.51591e-026   
     length 3.4869   
     axis -180 -30 -90   XYZ
    dof rx
    limits (-10.0 170.0)
  end
  begin
     id 20
     name lwrist
     direction 1 -4.48957e-011 2.70032e-026   
     length 1.74345   
     axis -1.81515e-014 90 90   XYZ
    dof ry
    limits (-180.0 0.0)
 end
  begin
     id 21 
     name lhand
     direction 1 -4.48951e-011 5.40064e-026   
     length 0.76799   
     axis -3.44607e-014 90 90   XYZ
    dof rx rz
    limits (-90.0 90.0)
           (-45.0 45.0)
  end
  begin
     id 22 
     name lfingers
     direction 1 -4.48971e-011 1.08013e-025   
     length 0.619174   
     axis -6.89214e-014 90 90   XYZ
    dof rx
    limits (0.0 90.0)
  end
  begin
     id 23
     name lthumb
     direction 0.707107 -6.34931e-011 0.707107   
     length 0.889013   
     axis -90 45 2.85299e-015   XYZ
    dof rx rz
    limits (-45.0 45.0)
           (-45.0 45.0)
  end
  begin
     id 24 
     name rclavicle
     direction -0.961409 0.252588 0.109054   
     length 4.04305  
     axis 0 0 0   XYZ 
    dof ry rz
    limits (-10.0 20.0)
           (-20.0 0.0)
  end
  begin
     id 25 
     name rhumerus
     direction -1 -4.4897e-011 1.33872e-017  
     length 4.70164   
     axis -180 30 90   XYZ
    dof rx ry rz
    limits (-90.0 60.0)
           (-90.0 90.0)
           (-90.0 90.0)
  end
  begin
     id 26 
     name rradius
     direction -1 -4.48954e-011 1.83844e-026   
     length 3.49911   
     axis -180 30 90   XYZ
    dof rx
    limits (-10.0 170.0)
  end
  begin
     id 27 
     name rwrist
     direction -1 -4.49008e-011 2.70032e-026   
     length 1.74955   
     axis -1.81515e-014 -90 -90   XYZ
    dof ry
    limits (-180.0 0.0)
  end
  begin
     id 28
     name rhand
     direction -1 -4.48916e-011 5.40064e-026   
     length 0.739335   
     axis -3.44607e-014 -90 -90   XYZ
    dof rx rz
    limits (-90.0 90.0)
           (-45.0 45.0)
  end
  begin
     id 29
     name rfingers
     direction -1 -4.48987e-011 1.08013e-025   
     length 0.596071   
     axis -6.89214e-014 -90 -90   XYZ
    dof rx
    limits (0.0 90.0)
  end
  begin
     id 30
     name rthumb
     direction -0.707107 -6.34935e-011 0.707107   
     length 0.855843   
     axis -90 -45 -2.85299e-015   XYZ
    dof rx rz
    limits (-45.0 45.0)
           (-45.0 45.0)
  end
:hierarchy
  begin
    root lhipjoint rhipjoint lowerback
    lhipjoint lfemur
    lfemur ltibia
    ltibia lfoot
    lfoot ltoes
    rhipjoint rfemur
    rfemur rtibia
    rtibia rfoot
    rfoot rtoes
    lowerback upperback
    upperback thorax
    thorax lowerneck lclavicle rclavicle
    lowerneck upperneck
    upperneck head
    lclavicle lhumerus
    lhumerus lradius
    lradius lwrist
    lwrist lhand lthumb
    lhand lfingers
    rclavicle rhumerus
    rhumerus rradius
    rradius rwrist
    rwrist rhand rthumb
    rhand rfingers
  end

#!OML:ASF I:\salsa\salsa 7_09\Patient 1\Session 1\dancermale.ASF
:FULLY-SPECIFIED
:DEGREES
1182
root 9.58897 17.2923 -8.57354 8.78238 26.5916 719.735
lowerback -4.86211 -0.482191 0.559985
upperback -1.97103 -0.665963 0.685761
thorax 0.703067 -0.329045 0.353333
lowerneck -6.64156 -11.3641 -6.26159
upperneck 19.7007 -14.6738 -0.251947
head 7.61155 -7.46327 -0.37259
rclavicle 5.93869e-015 -9.93923e-016
rhumerus -31.6614 -14.916 -67.6552
rradius 106.12
rwrist -18.5775
rhand -37.8405 -14.5466
rfingers 7.12502
rthumb -10.8854 -44.2445
lclavicle 5.93869e-015 -9.93923e-016
lhumerus -53.2947 -17.8313 101.73
lradius 73.2285
lwrist 11.1017
lhand -10.6356 53.4646
lfingers 7.12502
lthumb 15.3715 -637.127
rfemur -12.5994 -6.46711 0.431583
rtibia 16.1605
rfoot -3.20653 -34.8583
rtoes 15.2581
lfemur -16.309 6.49791 -19.5084
ltibia 25.8813
lfoot -21.5139 18.9756
ltoes 5.67473
1183
root 9.57359 17.2782 -8.58814 8.79065 26.4901 719.641
lowerback -4.87665 -0.505272 0.699958
upperback -2.02595 -0.702049 0.653094
thorax 0.652775 -0.347792 0.239628
lowerneck -6.62462 -11.2775 -6.17941
upperneck 19.7519 -14.5914 -0.140872
head 7.62461 -7.409 -0.342066
rclavicle 4.53478e-014 -9.93923e-016
rhumerus -31.3348 -15.7202 -68.0565
rradius 107.019
rwrist -15.906
rhand -38.0073 -15.5016
rfingers 7.12502
rthumb -11.0463 -45.191
lclavicle 4.53478e-014 -9.93923e-016
lhumerus -53.8303 -17.5682 101.165
lradius 73.22
lwrist 11.0382
lhand -10.9604 53.9692
lfingers 7.12502
lthumb 15.0586 -636.598
rfemur -12.8593 -6.85315 0.528585
rtibia 16.3015
rfoot -3.11139 -34.5329
rtoes 14.4716
lfemur -16.7744 6.44947 -19.4447
ltibia 26.5191
lfoot -21.5735 19.3468
ltoes 3.99437
1184
root 9.56033 17.2599 -8.59818 8.72063 26.2524 719.569
lowerback -4.88694 -0.513023 0.73505
upperback -2.07101 -0.713407 0.649473
thorax 0.611771 -0.35371 0.215816
lowerneck -6.50139 -11.1741 -6.05703
upperneck 19.7443 -14.4656 -0.182164
head 7.5832 -7.34623 -0.350902
rclavicle 4.0316e-015 -3.97569e-015
rhumerus -31.1222 -15.9947 -68.7113
rradius 108.047
rwrist -14.7887
rhand -38.4848 -14.1528
rfingers 7.12502
rthumb -11.5068 -43.817
lclavicle 4.0316e-015 -3.97569e-015
lhumerus -54.3957 -17.2302 100.757
lradius 73.1802
lwrist 10.5325
lhand -11.2451 54.7545
lfingers 7.12502
lthumb 14.7844 -635.793
rfemur -13.1405 -7.15898 0.538964
rtibia 16.6792
rfoot -3.3683 -34.0428
rtoes 14.3345
lfemur -17.1073 6.2827 -19.4003
ltibia 27.1481
lfoot -21.8991 19.6847
ltoes 4.82925
1185
root 9.5093 17.238 -8.62576 9.04497 26.1407 719.115
lowerback -5.0896 -0.594367 0.679129
upperback -2.35336 -0.818573 0.862102
thorax 0.438565 -0.404797 0.459322
lowerneck -6.35886 -11.0603 -6.01014
upperneck 19.7795 -14.3415 -0.102316
head 7.5682 -7.27885 -0.312493
rclavicle 8.20111e-014 1.07344e-014
rhumerus -30.8606 -16.3193 -69.3171
rradius 108.861
rwrist -13.2782
rhand -38.571 -13.8186
rfingers 7.12502
rthumb -11.59 -43.4781
lclavicle 8.20111e-014 1.07344e-014
lhumerus -54.8989 -16.853 100.392
lradius 73.1442
lwrist 10.0012
lhand -11.388 55.5496
lfingers 7.12502
lthumb 14.6467 -634.988
rfemur -14.2398 -7.38063 1.31238
rtibia 17.4197
rfoot -4.30629 -33.7575
rtoes 14.8251
lfemur -18.4252 6.88893 -18.8927
ltibia 28.2892
lfoot -22.3389 19.2799
ltoes 6.35174
1186
root 9.47516 17.222 -8.64846 8.8944 25.8023 718.849
lowerback -4.91167 -0.646764 0.520831
upperback -2.43406 -0.879218 1.00671
thorax 0.26151 -0.433397 0.695849
lowerneck -6.2001 -10.913 -5.94296
upperneck 19.7984 -14.1803 0.00643098
head 7.54422 -7.19022 -0.262865
rclavicle -9.94296e-014 -7.95139e-016
rhumerus -30.4358 -16.5859 -69.8928
rradius 109.481
rwrist -11.9992
rhand -38.0407 -14.1808
rfingers 7.12502
rthumb -11.0785 -43.8684
lclavicle -9.94296e-014 -7.95139e-016
lhumerus -55.194 -16.2577 99.8357
lradius 73.0777
lwrist 10.3271
lhand -11.3308 55.1783
lfingers 7.12502
lthumb 14.7018 -635.363
rfemur -14.8924 -7.78129 1.70106
rtibia 18.3006
rfoot -4.56556 -33.0426
rtoes 14.2154
lfemur -18.8872 7.37299 -18.5787
ltibia 29.0678
lfoot -22.7471 19.0367
ltoes 9.15576
1187
root 9.44923 17.2086 -8.66973 8.58705 25.3224 718.69
lowerback -4.65223 -0.661551 0.315812
upperback -2.41165 -0.88916 1.09804
thorax 0.14466 -0.436544 0.906897
lowerneck -6.16265 -10.762 -5.75902
upperneck 19.9004 -13.9939 -0.0376877
head 7.5474 -7.09291 -0.285416
rclavicle -8.01972e-015 -1.41137e-014
rhumerus -29.9602 -16.8127 -70.3592
rradius 109.778
rwrist -11.2841
rhand -37.1936 -14.9153
rfingers 7.12502
rthumb -10.2614 -44.645
lclavicle -8.01972e-015 -1.41137e-014
lhumerus -55.5177 -15.819 99.5653
lradius 73.1094
lwrist 10.071
lhand -11.4801 55.353
lfingers 7.12502
lthumb 14.5579 -635.178
rfemur -15.5429 -8.66698 1.96298
rtibia 19.3855
rfoot -3.00488 -31.937
rtoes 9.83666
lfemur -19.0223 7.76574 -18.3852
ltibia 29.6958
lfoot -23.0201 18.9808
ltoes 10.5835
1188
root 9.42216 17.1949 -8.69321 8.32607 24.7693 718.553
lowerback -4.48501 -0.630852 0.071463
upperback -2.37501 -0.838707 1.18258
thorax 0.0931149 -0.409076 1.13462
lowerneck -6.26409 -10.6527 -5.60058
upperneck 20.1708 -13.8521 -0.108304
head 7.6325 -7.01815 -0.331717
rclavicle 3.57502e-014 -1.3418e-014
rhumerus -29.6138 -16.874 -70.6144
rradius 109.626
rwrist -11.4472
rhand -36.7769 -15.3336
rfingers 7.12502
rthumb -9.85941 -45.0827
lclavicle 3.57502e-014 -1.3418e-014
lhumerus -55.8055 -15.5275 99.465
lradius 73.179
lwrist 9.99963
lhand -11.5275 55.3941
lfingers 7.12502
lthumb 14.5122 -635.133
rfemur -16.445 -9.89601 2.23367
rtibia 20.8027
rfoot -1.3373 -30.4511
rtoes 4.27505
lfemur -19.2018 8.06392 -18.2326
ltibia 30.3395
lfoot -23.2727 18.9291
ltoes 10.8471
1189
root 9.39484 17.1808 -8.71765 8.03922 24.1952 718.474
lowerback -4.27779 -0.594926 -0.272247
upperback -2.33942 -0.778303 1.28097
thorax 0.0187135 -0.375565 1.43307
lowerneck -6.29878 -10.5673 -5.49518
upperneck 20.388 -13.7347 -0.197245
head 7.69232 -6.96144 -0.372685
rclavicle 2.81467e-014 8.74653e-015
rhumerus -29.4595 -16.7452 -70.6571
rradius 109.211
rwrist -12.0345
rhand -36.6153 -15.6452
rfingers 7.12502
rthumb -9.70352 -45.4017
lclavicle 2.81467e-014 8.74653e-015
lhumerus -56.1703 -15.3881 99.5585
lradius 73.3886
lwrist 10.1503
lhand -11.5933 55.4306
lfingers 7.12502
lthumb 14.4489 -635.092
rfemur -17.3807 -11.0426 2.29909
rtibia 22.5704
rfoot -2.17053 -28.8758
rtoes 5.25859
lfemur -19.2862 8.10421 -18.147
ltibia 30.9162
lfoot -23.5793 18.8123
ltoes 11.1818
1190
root 9.36333 17.1662 -8.7438 7.67073 23.6023 718.47
lowerback -3.89564 -0.551481 -0.769103
upperback -2.25779 -0.705058 1.39077
thorax -0.10574 -0.334175 1.83095
lowerneck -6.35895 -10.4866 -5.4184
upperneck 20.4078 -13.6341 -0.192026
head 7.7009 -6.90743 -0.376577
rclavicle -4.09248e-014 -7.55382e-015
rhumerus -29.4034 -16.5561 -70.5881
rradius 108.765
rwrist -12.3695
rhand -36.3617 -16.0738
rfingers 7.12502
rthumb -9.45876 -45.8416
lclavicle -4.09248e-014 -7.55382e-015
lhumerus -56.5402 -15.4791 99.817
lradius 73.7805
lwrist 10.518
lhand -11.6942 55.5939
lfingers 7.12502
lthumb 14.3517 -634.922
rfemur -18.3311 -12.1886 2.24388
rtibia 24.6298
rfoot -3.37078 -27.0737
rtoes 7.42273
lfemur -19.2268 7.98923 -18.1176
ltibia 31.4302
lfoot -23.8273 18.7497
ltoes 11.234
1191
root 9.32546 17.1502 -8.77421 7.19008 23.0032 718.525
lowerback -3.31815 -0.479481 -1.32725
upperback -2.08339 -0.598026 1.49195
thorax -0.247226 -0.27588 2.25628
lowerneck -6.50446 -10.4139 -5.46606
upperneck 20.2303 -13.5499 -0.0318376
head 7.68039 -6.85654 -0.314304
rclavicle -1.73191e-014 -1.96797e-014
rhumerus -29.3649 -16.2062 -70.448
rradius 108.431
rwrist -12.3543
rhand -36.0665 -16.693
rfingers 7.12502
rthumb -9.17396 -46.4734
lclavicle -1.73191e-014 -1.96797e-014
lhumerus -56.7189 -15.7591 100.175
lradius 74.206
lwrist 10.9485
lhand -11.7753 55.6793
lfingers 7.12502
lthumb 14.2736 -634.831
rfemur -19.3139 -13.5265 2.17968
rtibia 26.937
rfoot -3.0991 -24.9912
rtoes 4.73272
lfemur -19.0607 7.85142 -18.1175
ltibia 31.982
lfoot -24.076 18.6803
ltoes 11.4369
